<?xml version="1.0" encoding="UTF-8"?>
<svg width="16px" height="16px" viewBox="0 0 16 16" version="1.1" xmlns="http://www.w3.org/2000/svg" xmlns:xlink="http://www.w3.org/1999/xlink">
    <!-- Generator: Sketch 50.2 (55047) - http://www.bohemiancoding.com/sketch -->
    <title>flow_click</title>
    <desc>Created with Sketch.</desc>
    <defs></defs>
    <g id="0504流程中心" stroke="none" stroke-width="1" fill="none" fill-rule="evenodd">
        <g id="Artboard" transform="translate(-228.000000, -93.000000)">
            <g id="flow_click" transform="translate(228.000000, 93.000000)">
                <rect id="Rectangle-48-Copy-20" x="0" y="0" width="16" height="16"></rect>
                <path d="M3.12666667,12.77 C3.12666667,13.0811204 2.87445374,13.3333333 2.56333333,13.3333333 C2.25221292,13.3333333 2,13.0811204 2,12.77 L2,9.69000004 C2,8.75663879 2.75663879,8 3.69000004,8 L12.1033333,8 C13.0366945,8 13.7933333,8.75663879 13.7933333,9.69000004 L13.7933333,12.77 C13.7933333,13.0811204 13.5411204,13.3333333 13.23,13.3333333 C12.9188796,13.3333333 12.6666667,13.0811204 12.6666667,12.77 L12.6666667,9.69000004 C12.6666667,9.37887961 12.4144537,9.12666667 12.1033333,9.12666667 L3.69000004,9.12666667 C3.37887961,9.12666667 3.12666667,9.37887961 3.12666667,9.69000004 L3.12666667,12.77 Z" id="Rectangle-51" fill="#1890FF" fill-rule="nonzero"></path>
                <path d="M7.33333333,3.24275627 C7.33333333,2.92459077 7.58554626,2.66666667 7.89666667,2.66666667 C8.20778708,2.66666667 8.46,2.92459077 8.46,3.24275627 L8.46,11.4239104 C8.46,11.7420759 8.20778708,12 7.89666667,12 C7.58554626,12 7.33333333,11.7420759 7.33333333,11.4239104 L7.33333333,3.24275627 Z" id="Path-4" fill="#1890FF" fill-rule="nonzero"></path>
                <rect id="Rectangle-52" fill="#1890FF" x="1.33333333" y="11.3333333" width="2.66666667" height="2.66666667" rx="0.666666667"></rect>
                <rect id="Rectangle-52-Copy" fill="#1890FF" x="12" y="11.3333333" width="2.66666667" height="2.66666667" rx="0.666666667"></rect>
                <rect id="Rectangle-52-Copy-2" fill="#1890FF" x="6.66666667" y="11.3333333" width="2.66666667" height="2.66666667" rx="0.666666667"></rect>
                <rect id="Rectangle-52-Copy-3" fill="#1890FF" x="6" y="2" width="4" height="4" rx="0.666666667"></rect>
            </g>
        </g>
    </g>
</svg>